<svg width="81" height="80" viewBox="0 0 81 80" fill="none" xmlns="http://www.w3.org/2000/svg">
<path d="M40.25 0L40.2577 39.9606L55.5574 3.04481L40.2723 39.9668L68.5342 11.7157L40.2832 39.9777L77.2052 24.6926L40.2894 39.9923L80.25 40L40.2894 40.0077L77.2052 55.3074L40.2832 40.0223L68.5342 68.2842L40.2723 40.0332L55.5574 76.9552L40.2577 40.0394L40.25 80L40.2423 40.0394L24.9426 76.9552L40.2277 40.0332L11.9657 68.2842L40.2168 40.0223L3.29481 55.3074L40.2106 40.0077L0.25 40L40.2106 39.9923L3.29481 24.6926L40.2168 39.9777L11.9657 11.7157L40.2277 39.9668L24.9426 3.04481L40.2423 39.9606L40.25 0Z" fill="#C8FEC7" stroke="#C8FEC7" stroke-width="4"/>
</svg>
